<?xml version="1.0" encoding="utf-8"?>
<!-- Generator: Adobe Illustrator 26.5.0, SVG Export Plug-In . SVG Version: 6.00 Build 0)  -->
<svg version="1.1" id="Layer_1" xmlns="http://www.w3.org/2000/svg" xmlns:xlink="http://www.w3.org/1999/xlink" x="0px" y="0px"
	 viewBox="0 0 50 50" style="enable-background:new 0 0 50 50;" xml:space="preserve">
<style type="text/css">
	.st0{fill:url(#SVGID_1_);}
	.st1{clip-path:url(#SVGID_00000182495056663299420480000016583329383750096012_);}
	.st2{fill:#F6CA3C;}
	.st3{fill:url(#SVGID_00000021809317860889129680000004250427151751387571_);}
	.st4{fill:url(#SVGID_00000066485807853507331700000004579241624782082999_);}
	.st5{clip-path:url(#SVGID_00000018224419370390418190000016876879386801660808_);}
	.st6{fill:url(#SVGID_00000003091377605926241440000005672170486772664724_);}
	.st7{fill:url(#SVGID_00000078008334558153004380000014546465165238832061_);}
	.st8{fill:none;}
	.st9{fill:url(#SVGID_00000168084217279657094890000002513629978459527581_);}
	.st10{fill:url(#SVGID_00000098181777986408183650000016299396395702865560_);}
	.st11{fill:url(#SVGID_00000005966743043193914370000013951132973803424145_);}
	.st12{fill:url(#SVGID_00000015347560708382571580000007301886248746399641_);}
	.st13{fill:url(#SVGID_00000000918841880231490710000004707114468743994004_);}
	.st14{fill:url(#SVGID_00000109744675495091920860000011211044799037686677_);}
	.st15{fill:url(#SVGID_00000004536773725167012160000000412014372517048994_);}
	.st16{fill:url(#SVGID_00000060736480241804908680000006767818855000581779_);}
	.st17{fill:url(#SVGID_00000009577254071528245570000007901718723469650063_);}
	.st18{fill:url(#SVGID_00000015344150301720899420000003141230945035172769_);}
	.st19{clip-path:url(#SVGID_00000155120412573360752590000010701183832332069017_);}
	.st20{fill:url(#SVGID_00000093175959750128916050000012220871813827402658_);}
	.st21{fill:url(#SVGID_00000175285773451876054070000011248318780688428691_);}
	.st22{clip-path:url(#SVGID_00000000915483665803764320000008003007163829052075_);}
	.st23{fill:url(#SVGID_00000119118842470900305020000000853479629227910054_);}
	.st24{fill:url(#SVGID_00000138567068186714616670000009124232681756786588_);}
	.st25{fill:url(#SVGID_00000003078192773433067440000011414155536270084756_);}
	.st26{fill:url(#SVGID_00000065068423555237772100000001687343058698713765_);}
	
		.st27{fill:url(#SVGID_00000070116158469681529020000009377506887062179719_);stroke:url(#SVGID_00000137116065354946163710000005426636133876546750_);stroke-miterlimit:10;}
	.st28{fill:url(#SVGID_00000099650031826872214920000016665960922484768906_);}
	.st29{clip-path:url(#SVGID_00000080191162745406160510000007931414629770983301_);}
	.st30{fill:url(#SVGID_00000162328032868846804810000012277460817608370048_);}
	.st31{fill:url(#SVGID_00000093149593102930083570000010573592623239662773_);}
	.st32{clip-path:url(#SVGID_00000152951143602889104490000016869200575332728745_);}
	.st33{fill:url(#SVGID_00000137841978915817337160000008843041721259651202_);}
	.st34{fill:url(#SVGID_00000054260106883389587790000003853407197119640219_);}
	.st35{fill:url(#SVGID_00000155121279147804234780000013615350050809038482_);}
	.st36{fill:url(#SVGID_00000115486549785654800080000004634123269657780141_);}
	.st37{fill:url(#SVGID_00000078756363686842905250000006911930110106147513_);}
	.st38{fill:none;stroke:#1C1C1C;stroke-width:0.5;stroke-miterlimit:10;}
	.st39{fill:url(#SVGID_00000145744706404209033780000008390249787857208727_);}
	.st40{fill:url(#SVGID_00000091731575391298507030000014935159025472055169_);}
	.st41{fill:url(#SVGID_00000075148390682624789740000010668926842469858451_);}
	.st42{fill:url(#SVGID_00000065034732813916874520000000263440074726717100_);}
	.st43{fill:url(#SVGID_00000047738186663342985120000008767952877706443663_);}
	.st44{fill:url(#SVGID_00000147941251804115710080000011085928568262205828_);}
	.st45{fill:#1C1C1C;}
	.st46{fill:url(#SVGID_00000158725257567520919990000007857955278449766561_);}
	.st47{fill:url(#SVGID_00000096052612735040594310000000276259063193325972_);}
	.st48{fill:url(#SVGID_00000156573207625246490920000013311172248977181363_);}
	.st49{fill:url(#SVGID_00000009572480569754044520000012390275956431556527_);}
	.st50{fill:url(#SVGID_00000062915122924209698920000015926964094910933672_);}
	.st51{fill:url(#SVGID_00000083075824748445015930000009751648414083835042_);}
</style>
<g>
	<path class="st8" d="M35.34,27.02c1.57,0.66,3.4,0.9,4.94-0.09c0.02-0.01,0.05-0.04,0.07-0.07c0-0.02,0-0.03,0-0.05
		c0.05-0.76,0.17-1.49-0.08-2.22c-0.69-2.05-3.21-0.92-4.54-0.48c-0.97,0.32-1.92,0.71-2.86,1.13
		C33.57,25.99,34.35,26.6,35.34,27.02z"/>
	<path class="st8" d="M15.73,43.31c-0.09-0.31-0.26-0.58-0.42-0.84c-0.52-0.84-1.05-1.68-1.57-2.52c-0.81-1.31-1.66-2.71-1.71-4.32
		c-0.01-0.41,0.14-0.94,0.49-0.94c0.16,0,0.31,0.13,0.43,0.26c0.64,0.65,1.25,1.79,1.84,2.51c0.59,0.71,1.15,1.24,1.95,1.6
		c0.79,0.36,1.75,0.15,2.47-0.39c1.15-0.87,1.32-2.79,2.31-3.89c0.15-0.16,0.31-0.3,0.51-0.35c0.2-0.04,0.43,0.04,0.52,0.24
		c0.05,0.12,0.06,0.25,0.06,0.38c0,0.08,0.17,1.31,0.11,1.86c-0.06,0.62-0.06,1.25,0.02,1.87c0.06,0.46,0.16,0.92,0.37,1.32
		c0.29,0.53,0.77,0.93,1.33,1.1c0.18,0.05,0.36,0.08,0.54,0.08c0.18,0,0.36-0.03,0.54-0.08c0.56-0.16,1.05-0.56,1.34-1.09
		c0.22-0.4,0.32-0.86,0.39-1.32c0.08-0.62,0.1-1.25,0.04-1.87c-0.05-0.49,0.05-1.7,0.05-1.83c0-0.13,0.01-0.27,0.07-0.38
		c0.1-0.2,0.33-0.28,0.52-0.24c0.2,0.04,0.37,0.19,0.51,0.35c0.99,1.11,1.14,3.03,2.28,3.91c0.71,0.54,1.67,0.76,2.46,0.41
		c0.8-0.36,1.37-0.87,1.96-1.58c0.59-0.71,1.22-1.85,1.86-2.49c0.12-0.12,0.27-0.25,0.43-0.25c0.36,0,0.5,0.53,0.48,0.94
		c-0.07,1.61-0.92,3.01-1.75,4.31c-0.53,0.84-1.06,1.67-1.59,2.51c-0.17,0.26-0.34,0.53-0.43,0.84c-0.1,0.33-0.11,0.69-0.1,1.05
		c0,0.14,0.01,0.27,0.02,0.4C41.6,41.41,46.84,33.81,46.84,25c0-12.04-9.8-21.84-21.84-21.84S3.16,12.96,3.16,25
		c0,8.75,5.18,16.32,12.63,19.8c0.01-0.14,0.02-0.29,0.03-0.44C15.84,44,15.83,43.64,15.73,43.31z M17.6,37.43
		c-0.97,0-1.76-0.92-1.76-2.04c0-1.12,0.8-2.03,1.77-2.02c0.97,0,1.76,0.92,1.76,2.04C19.37,36.53,18.58,37.44,17.6,37.43z
		 M24.99,40.15c-0.9,0-1.62-0.84-1.62-1.88c0-1.03,0.74-1.87,1.63-1.86c0.9,0,1.62,0.84,1.62,1.88
		C26.62,39.32,25.89,40.16,24.99,40.15z M32.62,37.49c-0.97,0-1.76-0.92-1.76-2.04c0-1.12,0.8-2.03,1.77-2.02
		c0.97,0,1.76,0.92,1.76,2.04C34.39,36.59,33.6,37.5,32.62,37.49z M7.86,31.77c-1.1-0.76-1.98-2.04-1.62-3.67
		c0.42-1.88,1.67-3.38,3.08-4.21c2.2-1.29,4.5-2.33,6.85-3.15c-2.63-1.38-5.81-2.62-5.36-6.47c0.24-2.03,1.52-4.17,2.91-5.32
		c1.79-1.48,3.96-1.13,5.84-0.24c5.17,2.68,8.22,8.73,11.47,13.95c0.21,0.34,0.43,0.68,0.64,0.99c0.57-0.3,1.13-0.59,1.7-0.87
		c1.57-0.76,3.17-1.42,4.81-1.87c1.31-0.35,3.03-0.88,3.72,0.91c0.89,2.33-0.5,5.51-1.93,7.12c-2.5,2.8-7.07,1.45-9.12-1.31
		c-0.25-0.33-0.49-0.67-0.72-1.01c-1.29,0.69-2.56,1.42-3.83,2.13c-2.99,1.67-6.04,3.25-9.28,4C14.11,33.42,10.48,33.58,7.86,31.77z
		"/>
	<path class="st8" d="M7.82,26.61c0.01,0,0.02,0.07,0.04,0.15C7.9,26.69,7.9,26.64,7.82,26.61z"/>
	<path class="st8" d="M29.37,41.61c-0.2-0.57-0.49-1.1-0.77-1.62c-0.36,1.1-0.97,2.01-1.47,3.14c-0.5,1.14-0.65,2.4-0.6,3.66
		c1.06-0.07,2.1-0.22,3.11-0.44C29.71,44.73,29.88,43.09,29.37,41.61z"/>
	<path class="st8" d="M22.83,43.11c-0.5-1.17-1.12-2.11-1.47-3.26c-0.3,0.55-0.62,1.09-0.83,1.69c-0.52,1.49-0.37,3.14-0.32,4.76
		c1.04,0.23,2.1,0.39,3.19,0.47C23.46,45.51,23.32,44.25,22.83,43.11z"/>
	<path class="st8" d="M29.11,25.05c-1.31-2.11-2.52-4.34-3.9-6.37c-2-2.94-4.3-5.62-7.23-7.14c-1.48-0.7-3.24-1.17-4.78-0.28
		c-0.69,0.4-0.85,0.8-0.71,1.71c0.12,0.8,0.47,1.48,0.92,2.06c1.85,2.33,4.8,2.43,6.77,4.57c0.47,0.51-0.99,2.74-1.46,2.85
		c-3.47,0.85-6.87,2.14-10.1,3.94c-0.25,0.14-0.5,0.31-0.75,0.46c0.01,0.1,0.03,0.19,0.05,0.22c0.49,0.76,0.77,1.36,1.51,1.87
		c1.41,0.98,3.24,1.31,4.86,1.38C19.56,30.51,24.35,27.72,29.11,25.05z"/>
	<path class="st2" d="M17.62,33.37c-0.97,0-1.77,0.9-1.77,2.02c0,1.12,0.78,2.03,1.76,2.04c0.97,0,1.77-0.9,1.77-2.02
		C19.38,34.29,18.6,33.38,17.62,33.37z"/>
	<linearGradient id="SVGID_1_" gradientUnits="userSpaceOnUse" x1="12.0235" y1="40.6221" x2="37.9204" y2="40.6221">
		<stop  offset="0" style="stop-color:#FF4B4A"/>
		<stop  offset="0.3603" style="stop-color:#F6CA3C"/>
		<stop  offset="0.7179" style="stop-color:#F17EFF"/>
		<stop  offset="1" style="stop-color:#AEA8FF"/>
	</linearGradient>
	<path class="st0" d="M20.53,41.54c0.21-0.6,0.53-1.14,0.83-1.69c0.35,1.15,0.98,2.09,1.47,3.26c0.49,1.14,0.63,2.41,0.56,3.67
		c0.53,0.04,1.07,0.07,1.61,0.07c0.52,0,1.03-0.02,1.53-0.06c-0.06-1.26,0.1-2.52,0.6-3.66c0.49-1.13,1.1-2.04,1.47-3.14
		c0.28,0.53,0.57,1.05,0.77,1.62c0.51,1.48,0.34,3.12,0.28,4.73c1.54-0.34,3.02-0.83,4.42-1.48c-0.01-0.13-0.02-0.26-0.02-0.4
		c-0.01-0.35,0-0.71,0.1-1.05c0.09-0.31,0.26-0.58,0.43-0.84c0.53-0.84,1.06-1.67,1.59-2.51c0.82-1.3,1.68-2.7,1.75-4.31
		c0.02-0.41-0.13-0.95-0.48-0.94c-0.16,0-0.31,0.13-0.43,0.25c-0.64,0.65-1.27,1.78-1.86,2.49c-0.59,0.71-1.16,1.23-1.96,1.58
		c-0.8,0.36-1.75,0.14-2.46-0.41c-1.15-0.88-1.3-2.8-2.28-3.91c-0.14-0.16-0.31-0.31-0.51-0.35c-0.2-0.04-0.43,0.04-0.52,0.24
		c-0.06,0.11-0.06,0.25-0.07,0.38c0,0.12-0.1,1.34-0.05,1.83c0.06,0.62,0.05,1.25-0.04,1.87c-0.06,0.46-0.17,0.92-0.39,1.32
		c-0.29,0.53-0.78,0.93-1.34,1.09c-0.18,0.05-0.36,0.08-0.54,0.08c-0.18,0-0.36-0.03-0.54-0.08c-0.55-0.16-1.04-0.57-1.33-1.1
		c-0.22-0.4-0.32-0.86-0.37-1.32c-0.08-0.62-0.09-1.25-0.02-1.87c0.06-0.55-0.11-1.78-0.11-1.86c0-0.13-0.01-0.27-0.06-0.38
		c-0.1-0.2-0.32-0.29-0.52-0.24c-0.2,0.04-0.37,0.19-0.51,0.35c-1,1.1-1.16,3.02-2.31,3.89c-0.71,0.54-1.67,0.75-2.47,0.39
		c-0.79-0.36-1.36-0.89-1.95-1.6c-0.59-0.71-1.2-1.86-1.84-2.51c-0.12-0.13-0.26-0.25-0.43-0.26c-0.36-0.01-0.51,0.53-0.49,0.94
		c0.05,1.61,0.9,3.02,1.71,4.32c0.52,0.84,1.05,1.68,1.57,2.52c0.16,0.26,0.33,0.53,0.42,0.84c0.1,0.33,0.1,0.7,0.09,1.05
		c-0.01,0.15-0.02,0.3-0.03,0.44c1.4,0.65,2.87,1.16,4.41,1.51C20.16,44.69,20,43.03,20.53,41.54z"/>
	<path class="st2" d="M32.64,33.44c-0.97,0-1.77,0.9-1.77,2.02c0,1.12,0.78,2.03,1.76,2.04c0.97,0,1.77-0.9,1.77-2.02
		C34.4,34.35,33.61,33.44,32.64,33.44z"/>
	<path class="st2" d="M25.01,36.42c-0.9,0-1.63,0.83-1.63,1.86c0,1.03,0.72,1.87,1.62,1.88c0.9,0,1.63-0.83,1.63-1.86
		C26.63,37.26,25.9,36.42,25.01,36.42z"/>
	
		<linearGradient id="SVGID_00000165217832857449967520000017068627045073347456_" gradientUnits="userSpaceOnUse" x1="12.0235" y1="46.0981" x2="37.9204" y2="46.0981">
		<stop  offset="0" style="stop-color:#FF4B4A"/>
		<stop  offset="0.3603" style="stop-color:#F6CA3C"/>
		<stop  offset="0.7179" style="stop-color:#F17EFF"/>
		<stop  offset="1" style="stop-color:#AEA8FF"/>
	</linearGradient>
	<path style="fill:url(#SVGID_00000165217832857449967520000017068627045073347456_);" d="M20.21,46.3
		c-1.54-0.35-3.01-0.85-4.41-1.51c-0.03,0.38-0.1,0.73-0.2,1.08c1.46,0.66,3,1.18,4.61,1.52c0.01-0.19,0.01-0.39,0.01-0.58
		C20.22,46.65,20.21,46.47,20.21,46.3z"/>
	
		<linearGradient id="SVGID_00000042732433032429161960000013959892346874333579_" gradientUnits="userSpaceOnUse" x1="12.0235" y1="46.1468" x2="37.9204" y2="46.1468">
		<stop  offset="0" style="stop-color:#FF4B4A"/>
		<stop  offset="0.3603" style="stop-color:#F6CA3C"/>
		<stop  offset="0.7179" style="stop-color:#F17EFF"/>
		<stop  offset="1" style="stop-color:#AEA8FF"/>
	</linearGradient>
	<path style="fill:url(#SVGID_00000042732433032429161960000013959892346874333579_);" d="M29.65,46.34
		c-0.01,0.18-0.01,0.37-0.02,0.55c0,0.18,0,0.37,0.01,0.55c1.61-0.33,3.15-0.84,4.61-1.49c-0.1-0.36-0.15-0.71-0.18-1.09
		C32.67,45.5,31.19,46,29.65,46.34z"/>
	
		<linearGradient id="SVGID_00000074406939757759706080000012387938990033585803_" gradientUnits="userSpaceOnUse" x1="12.0235" y1="47.341" x2="37.9204" y2="47.341">
		<stop  offset="0" style="stop-color:#FF4B4A"/>
		<stop  offset="0.3603" style="stop-color:#F6CA3C"/>
		<stop  offset="0.7179" style="stop-color:#F17EFF"/>
		<stop  offset="1" style="stop-color:#AEA8FF"/>
	</linearGradient>
	<path style="fill:url(#SVGID_00000074406939757759706080000012387938990033585803_);" d="M25,46.84c-0.54,0-1.08-0.03-1.61-0.07
		c-0.02,0.36-0.06,0.71-0.11,1.06c0.57,0.04,1.14,0.07,1.71,0.07c0.55,0,1.09-0.03,1.63-0.06c-0.05-0.35-0.08-0.71-0.1-1.06
		C26.03,46.81,25.52,46.84,25,46.84z"/>
	
		<linearGradient id="SVGID_00000074427365024263546100000011171392438067630998_" gradientUnits="userSpaceOnUse" x1="2.0916" y1="25" x2="47.9084" y2="25">
		<stop  offset="0" style="stop-color:#FF4B4A"/>
		<stop  offset="0.3603" style="stop-color:#F6CA3C"/>
		<stop  offset="0.7179" style="stop-color:#F17EFF"/>
		<stop  offset="1" style="stop-color:#AEA8FF"/>
	</linearGradient>
	<path style="fill:url(#SVGID_00000074427365024263546100000011171392438067630998_);" d="M25,2.09C12.37,2.09,2.09,12.37,2.09,25
		c0,9.28,5.55,17.28,13.5,20.88c1.46,0.66,3,1.18,4.61,1.52c1,0.21,2.03,0.36,3.08,0.44c0.57,0.04,1.14,0.07,1.71,0.07
		c0.55,0,1.09-0.03,1.63-0.06c1.02-0.07,2.03-0.21,3.01-0.41c1.61-0.33,3.15-0.84,4.61-1.49C42.29,42.39,47.91,34.34,47.91,25
		C47.91,12.37,37.63,2.09,25,2.09z M34.07,44.86c-1.4,0.64-2.88,1.14-4.42,1.48c-1.01,0.22-2.05,0.37-3.11,0.44
		c-0.51,0.04-1.02,0.06-1.53,0.06c-0.54,0-1.08-0.03-1.61-0.07c-1.09-0.08-2.15-0.24-3.19-0.47c-1.54-0.35-3.01-0.85-4.41-1.51
		C8.34,41.32,3.16,33.75,3.16,25c0-12.04,9.8-21.84,21.84-21.84S46.84,12.96,46.84,25C46.84,33.81,41.6,41.41,34.07,44.86z"/>
	
		<linearGradient id="SVGID_00000021803535970852346840000001884176794771529114_" gradientUnits="userSpaceOnUse" x1="-76.863" y1="-202.5156" x2="-43.6652" y2="-175.4745" gradientTransform="matrix(0.8728 -0.4881 0.4881 0.8728 170.1764 158.0145)">
		<stop  offset="0" style="stop-color:#BE1E2D"/>
		<stop  offset="0.3603" style="stop-color:#F2B022"/>
		<stop  offset="0.567" style="stop-color:#F193A2"/>
		<stop  offset="0.7179" style="stop-color:#F17EFF"/>
		<stop  offset="1" style="stop-color:#AEA8FF"/>
	</linearGradient>
	<path style="fill:url(#SVGID_00000021803535970852346840000001884176794771529114_);" d="M17.01,32.75c3.24-0.74,6.28-2.33,9.28-4
		c1.27-0.71,2.55-1.44,3.83-2.13c0.23,0.34,0.47,0.68,0.72,1.01c2.06,2.76,6.62,4.11,9.12,1.31c1.43-1.6,2.82-4.79,1.93-7.12
		c-0.69-1.79-2.41-1.27-3.72-0.91c-1.64,0.44-3.25,1.11-4.81,1.87c-0.57,0.28-1.14,0.57-1.7,0.87c-0.21-0.32-0.43-0.65-0.64-0.99
		c-3.25-5.22-6.31-11.27-11.47-13.95c-1.88-0.89-4.05-1.24-5.84,0.24c-1.39,1.15-2.67,3.29-2.91,5.32
		c-0.45,3.84,2.73,5.08,5.36,6.47c-2.35,0.82-4.65,1.86-6.85,3.15c-1.41,0.82-2.65,2.33-3.08,4.21c-0.37,1.62,0.52,2.91,1.62,3.67
		C10.48,33.58,14.11,33.42,17.01,32.75z M35.74,24.11c1.33-0.44,3.85-1.56,4.54,0.48c0.25,0.74,0.13,1.46,0.08,2.22
		c0,0.02,0,0.03,0,0.05c-0.03,0.03-0.06,0.06-0.07,0.07c-1.54,0.99-3.37,0.76-4.94,0.09c-1-0.42-1.78-1.03-2.47-1.78
		C33.82,24.81,34.77,24.42,35.74,24.11z M7.82,26.61c0.08,0.03,0.08,0.09,0.04,0.15C7.84,26.68,7.83,26.61,7.82,26.61z M7.92,27.07
		c-0.02-0.02-0.03-0.12-0.05-0.22c0.25-0.15,0.5-0.32,0.75-0.46c3.23-1.8,6.63-3.1,10.1-3.94c0.46-0.11,1.92-2.34,1.46-2.85
		c-1.97-2.14-4.92-2.24-6.77-4.57c-0.46-0.58-0.81-1.26-0.92-2.06c-0.13-0.9,0.03-1.31,0.71-1.71c1.53-0.88,3.3-0.42,4.78,0.28
		c2.93,1.52,5.23,4.2,7.23,7.14c1.38,2.03,2.59,4.26,3.9,6.37c-4.75,2.67-9.54,5.45-14.83,5.25c-1.62-0.06-3.44-0.4-4.86-1.38
		C8.68,28.42,8.41,27.82,7.92,27.07z"/>
</g>
</svg>
