<?xml version="1.0" encoding="utf-8"?>
<!-- Generator: Adobe Illustrator 26.5.0, SVG Export Plug-In . SVG Version: 6.00 Build 0)  -->
<svg version="1.1" id="Layer_1" xmlns="http://www.w3.org/2000/svg" xmlns:xlink="http://www.w3.org/1999/xlink" x="0px" y="0px"
	 viewBox="0 0 160 80" style="enable-background:new 0 0 160 80;" xml:space="preserve">
<style type="text/css">
	.st0{fill:url(#SVGID_1_);}
	.st1{clip-path:url(#SVGID_00000125583164417492794470000008707903230834714752_);}
	.st2{fill:#F6CA3C;}
	.st3{fill:url(#SVGID_00000141439978806914011120000007936634036991996332_);}
	.st4{fill:url(#SVGID_00000155829020644893215210000013189620744589140141_);}
	.st5{clip-path:url(#SVGID_00000060731738692182597940000008594217482946194360_);}
	.st6{fill:url(#SVGID_00000132048107217130689190000008995014466619071134_);}
	.st7{fill:url(#SVGID_00000034051751142255240480000008420324392405606312_);}
	.st8{fill:none;}
	.st9{fill:url(#SVGID_00000060740215726790961910000003898190236590885278_);}
	.st10{fill:url(#SVGID_00000062902461506810093670000009932555070849719963_);}
	.st11{fill:url(#SVGID_00000082363823696844480280000008576816652155421365_);}
	.st12{fill:url(#SVGID_00000075884629190530984240000017724930071195194785_);}
	.st13{fill:url(#SVGID_00000152245825927533191640000009746242943215884723_);}
	.st14{fill:url(#SVGID_00000051342367582070550740000001528168674678450105_);}
	.st15{fill:url(#SVGID_00000173882069803651249090000016609630025883130286_);}
	.st16{fill:url(#SVGID_00000023277739327616196970000014914511374565991556_);}
	.st17{fill:url(#SVGID_00000181805385639469780220000011141986726729484719_);}
	.st18{fill:url(#SVGID_00000155143904293403034930000017306717525238097037_);}
	.st19{clip-path:url(#SVGID_00000018919031594920718970000017215990408151742112_);}
	.st20{fill:url(#SVGID_00000104670130177670168440000001815981234167418006_);}
	.st21{fill:url(#SVGID_00000154419683035772295510000011771424374025744535_);}
	.st22{clip-path:url(#SVGID_00000028283095993486630170000000512818075477693363_);}
	.st23{fill:url(#SVGID_00000135677485910847799690000015316043628832615068_);}
	.st24{fill:url(#SVGID_00000176733927017832943550000006047570357991328687_);}
	.st25{fill:url(#SVGID_00000096044629474350478300000010356259960248914581_);}
	.st26{fill:url(#SVGID_00000030446955732100966840000014775915283901703812_);}
	
		.st27{fill:url(#SVGID_00000070826221065994367130000001748828429803525526_);stroke:url(#SVGID_00000103958221374571694600000007083540545277826956_);stroke-miterlimit:10;}
	.st28{fill:url(#SVGID_00000015331952070733457450000012401055963196297864_);}
	.st29{clip-path:url(#SVGID_00000019677374593644723860000009470803229834814870_);}
	.st30{fill:url(#SVGID_00000082343125949501076690000005475856297230456238_);}
	.st31{fill:url(#SVGID_00000054231197909756798470000005723147115762943369_);}
	.st32{clip-path:url(#SVGID_00000130636296304827409460000013308112249010135938_);}
	.st33{fill:url(#SVGID_00000103233976863139971380000001753240661305612706_);}
	.st34{fill:url(#SVGID_00000072988120647188002950000008709731134773287812_);}
	.st35{fill:url(#SVGID_00000092449471803565814250000015002964002775548314_);}
	.st36{fill:url(#SVGID_00000008832111733581893780000008203029803059525018_);}
	.st37{fill:url(#SVGID_00000123426487476800533190000002281821922861793955_);}
	.st38{fill:none;stroke:#1C1C1C;stroke-width:0.5;stroke-miterlimit:10;}
	.st39{fill:url(#SVGID_00000039104581567304819200000015798413896167482778_);}
	.st40{fill:url(#SVGID_00000025431181955703239730000006570988966067337637_);}
	.st41{fill:url(#SVGID_00000074427227358570841460000017913579531042578874_);}
	.st42{fill:url(#SVGID_00000013175765338326341470000003001395214158919837_);}
	.st43{fill:url(#SVGID_00000178903297369393313890000013981052420106744988_);}
	.st44{fill:url(#SVGID_00000067205770046488690240000006504883032912179867_);}
	.st45{fill:#1C1C1C;}
</style>
<path class="st8" d="M38.49,42.22c1.74,0.74,3.77,1,5.49-0.1c0.02-0.01,0.05-0.04,0.08-0.08c0-0.02,0-0.03,0-0.05
	c0.06-0.85,0.19-1.65-0.09-2.47c-0.77-2.27-3.57-1.02-5.05-0.54c-1.08,0.35-2.14,0.78-3.18,1.26
	C36.52,41.08,37.39,41.75,38.49,42.22z"/>
<path class="st8" d="M16.7,60.32c-0.1-0.34-0.29-0.64-0.47-0.94c-0.58-0.93-1.17-1.87-1.75-2.8c-0.9-1.45-1.84-3.02-1.9-4.8
	c-0.01-0.46,0.15-1.05,0.55-1.04c0.18,0,0.34,0.14,0.48,0.28c0.71,0.72,1.39,1.99,2.04,2.79c0.65,0.79,1.28,1.37,2.16,1.78
	c0.88,0.4,1.95,0.17,2.74-0.43c1.28-0.97,1.47-3.1,2.57-4.32c0.16-0.18,0.35-0.34,0.57-0.39c0.22-0.05,0.47,0.04,0.58,0.27
	c0.06,0.13,0.07,0.28,0.07,0.43c0,0.09,0.19,1.46,0.13,2.06c-0.07,0.69-0.06,1.39,0.03,2.08c0.06,0.51,0.18,1.02,0.42,1.47
	c0.32,0.59,0.86,1.04,1.47,1.22c0.2,0.06,0.4,0.09,0.6,0.09c0.2,0,0.41-0.03,0.6-0.09c0.62-0.18,1.16-0.62,1.48-1.21
	c0.24-0.45,0.36-0.96,0.43-1.47c0.09-0.69,0.11-1.39,0.04-2.08c-0.05-0.54,0.05-1.89,0.06-2.03c0-0.15,0.01-0.3,0.07-0.42
	c0.11-0.22,0.36-0.31,0.58-0.26c0.22,0.05,0.41,0.21,0.57,0.39c1.1,1.23,1.26,3.37,2.54,4.35c0.79,0.61,1.85,0.85,2.74,0.45
	c0.88-0.4,1.52-0.97,2.18-1.76c0.66-0.79,1.35-2.05,2.07-2.77c0.14-0.14,0.3-0.28,0.48-0.28c0.4,0,0.56,0.59,0.54,1.05
	c-0.07,1.78-1.03,3.34-1.94,4.79c-0.59,0.93-1.18,1.86-1.77,2.79c-0.19,0.29-0.37,0.59-0.48,0.93c-0.11,0.37-0.12,0.77-0.11,1.16
	c0,0.15,0.01,0.3,0.03,0.44c8.36-3.84,14.19-12.28,14.19-22.07c0-13.38-10.89-24.27-24.27-24.27S2.73,26.6,2.73,39.98
	c0,9.73,5.76,18.13,14.04,22c0.01-0.16,0.03-0.32,0.03-0.49C16.82,61.09,16.81,60.69,16.7,60.32z M18.78,53.79
	c-1.08,0-1.96-1.02-1.95-2.26c0.01-1.25,0.89-2.25,1.97-2.25c1.08,0,1.96,1.02,1.95,2.26C20.75,52.79,19.87,53.8,18.78,53.79z
	 M26.99,56.82c-1,0-1.8-0.94-1.8-2.08c0-1.15,0.82-2.07,1.81-2.07c1,0,1.8,0.94,1.8,2.08C28.8,55.89,27.99,56.82,26.99,56.82z
	 M35.47,53.86c-1.08,0-1.96-1.02-1.95-2.26c0.01-1.25,0.89-2.25,1.97-2.25c1.08,0,1.96,1.02,1.95,2.26
	C37.43,52.86,36.55,53.87,35.47,53.86z M7.95,47.5c-1.22-0.84-2.21-2.27-1.8-4.07c0.47-2.08,1.86-3.76,3.42-4.68
	c2.45-1.43,5-2.59,7.61-3.5c-2.93-1.53-6.45-2.92-5.96-7.18c0.26-2.26,1.68-4.64,3.23-5.91c1.99-1.65,4.4-1.26,6.49-0.27
	c5.74,2.98,9.14,9.7,12.75,15.5c0.24,0.38,0.47,0.75,0.71,1.1c0.63-0.33,1.26-0.66,1.89-0.97c1.74-0.85,3.52-1.58,5.35-2.08
	c1.45-0.39,3.37-0.98,4.13,1.02c0.99,2.58-0.55,6.13-2.14,7.91c-2.78,3.11-7.86,1.61-10.14-1.46c-0.27-0.37-0.54-0.74-0.8-1.13
	c-1.43,0.77-2.84,1.58-4.26,2.37c-3.32,1.86-6.71,3.61-10.31,4.44C14.9,49.33,10.87,49.51,7.95,47.5z"/>
<path class="st8" d="M7.91,41.76c0.01,0,0.03,0.08,0.04,0.17C8,41.86,8.01,41.8,7.91,41.76z"/>
<path class="st8" d="M31.86,58.43c-0.22-0.64-0.54-1.22-0.86-1.8c-0.4,1.22-1.08,2.23-1.63,3.49c-0.55,1.26-0.72,2.66-0.66,4.06
	c1.18-0.08,2.33-0.25,3.46-0.49C32.23,61.9,32.42,60.08,31.86,58.43z"/>
<path class="st8" d="M24.59,60.1c-0.55-1.3-1.25-2.34-1.64-3.62c-0.34,0.61-0.69,1.21-0.92,1.88c-0.58,1.65-0.41,3.49-0.36,5.29
	c1.15,0.26,2.33,0.44,3.54,0.52C25.29,62.77,25.13,61.37,24.59,60.1z"/>
<path class="st8" d="M31.56,40.04c-1.46-2.34-2.8-4.82-4.33-7.08c-2.22-3.27-4.77-6.24-8.03-7.93c-1.64-0.78-3.6-1.3-5.31-0.31
	c-0.76,0.44-0.94,0.89-0.79,1.9c0.13,0.89,0.52,1.65,1.03,2.29c2.05,2.59,5.34,2.7,7.52,5.08c0.52,0.56-1.1,3.04-1.62,3.16
	c-3.85,0.94-7.63,2.38-11.22,4.38c-0.28,0.16-0.56,0.35-0.84,0.51c0.02,0.11,0.03,0.21,0.05,0.24c0.55,0.84,0.85,1.51,1.67,2.07
	c1.57,1.08,3.6,1.46,5.4,1.53C20.96,46.1,26.28,43,31.56,40.04z"/>
<path class="st2" d="M18.8,49.28c-1.08,0-1.96,1-1.97,2.25c-0.01,1.25,0.87,2.26,1.95,2.26c1.08,0,1.96-1,1.97-2.25
	C20.76,50.3,19.89,49.29,18.8,49.28z"/>
<linearGradient id="SVGID_1_" gradientUnits="userSpaceOnUse" x1="12.5826" y1="57.3372" x2="41.3586" y2="57.3372">
	<stop  offset="0" style="stop-color:#FF4B4A"/>
	<stop  offset="0.3603" style="stop-color:#F6CA3C"/>
	<stop  offset="0.7179" style="stop-color:#F17EFF"/>
	<stop  offset="1" style="stop-color:#AEA8FF"/>
</linearGradient>
<path class="st0" d="M22.03,58.36c0.24-0.67,0.58-1.27,0.92-1.88c0.39,1.28,1.08,2.32,1.64,3.62c0.54,1.27,0.7,2.67,0.63,4.08
	c0.59,0.04,1.18,0.07,1.78,0.07c0.57,0,1.14-0.03,1.71-0.07c-0.06-1.4,0.11-2.8,0.66-4.06c0.55-1.25,1.22-2.26,1.63-3.49
	c0.32,0.58,0.64,1.16,0.86,1.8c0.56,1.65,0.38,3.47,0.31,5.25c1.71-0.37,3.36-0.93,4.91-1.64c-0.01-0.14-0.02-0.29-0.03-0.44
	c-0.01-0.39,0-0.79,0.11-1.16c0.1-0.34,0.29-0.64,0.48-0.93c0.59-0.93,1.18-1.86,1.77-2.79c0.92-1.44,1.87-3,1.94-4.79
	c0.02-0.46-0.14-1.05-0.54-1.05c-0.18,0-0.34,0.14-0.48,0.28c-0.71,0.72-1.41,1.98-2.07,2.77c-0.66,0.79-1.29,1.36-2.18,1.76
	c-0.88,0.4-1.95,0.15-2.74-0.45c-1.27-0.98-1.44-3.11-2.54-4.35c-0.16-0.18-0.35-0.34-0.57-0.39c-0.22-0.05-0.47,0.04-0.58,0.26
	c-0.06,0.13-0.07,0.28-0.07,0.42c0,0.14-0.11,1.49-0.06,2.03c0.06,0.69,0.05,1.39-0.04,2.08c-0.07,0.51-0.18,1.02-0.43,1.47
	c-0.32,0.59-0.87,1.03-1.48,1.21c-0.2,0.06-0.4,0.09-0.6,0.09c-0.2,0-0.41-0.03-0.6-0.09c-0.62-0.18-1.16-0.63-1.47-1.22
	c-0.24-0.45-0.35-0.96-0.42-1.47c-0.09-0.69-0.1-1.39-0.03-2.08c0.06-0.61-0.12-1.97-0.13-2.06c0-0.15-0.01-0.3-0.07-0.43
	c-0.11-0.23-0.36-0.32-0.58-0.27c-0.22,0.05-0.41,0.21-0.57,0.39c-1.11,1.22-1.29,3.36-2.57,4.32c-0.79,0.6-1.86,0.83-2.74,0.43
	c-0.88-0.4-1.51-0.98-2.16-1.78c-0.65-0.79-1.33-2.06-2.04-2.79c-0.14-0.14-0.29-0.28-0.48-0.28c-0.4-0.01-0.56,0.59-0.55,1.04
	c0.06,1.79,1,3.35,1.9,4.8c0.58,0.93,1.17,1.87,1.75,2.8c0.18,0.29,0.37,0.59,0.47,0.94c0.11,0.37,0.11,0.77,0.1,1.17
	c-0.01,0.17-0.02,0.33-0.03,0.49c1.55,0.72,3.19,1.29,4.9,1.67C21.62,61.85,21.45,60.01,22.03,58.36z"/>
<path class="st2" d="M35.49,49.35c-1.08,0-1.96,1-1.97,2.25c-0.01,1.25,0.87,2.26,1.95,2.26c1.08,0,1.96-1,1.97-2.25
	C37.45,50.37,36.57,49.36,35.49,49.35z"/>
<path class="st2" d="M27.01,52.66c-1,0-1.81,0.92-1.81,2.07c0,1.15,0.8,2.08,1.8,2.08c1,0,1.81-0.92,1.81-2.07
	C28.81,53.6,28.01,52.67,27.01,52.66z"/>
<linearGradient id="SVGID_00000068656626844444340420000016633979912939239328_" gradientUnits="userSpaceOnUse" x1="12.5826" y1="63.422" x2="41.3586" y2="63.422">
	<stop  offset="0" style="stop-color:#FF4B4A"/>
	<stop  offset="0.3603" style="stop-color:#F6CA3C"/>
	<stop  offset="0.7179" style="stop-color:#F17EFF"/>
	<stop  offset="1" style="stop-color:#AEA8FF"/>
</linearGradient>
<path style="fill:url(#SVGID_00000068656626844444340420000016633979912939239328_);" d="M21.67,63.65
	c-1.71-0.38-3.35-0.95-4.9-1.67c-0.04,0.42-0.11,0.81-0.22,1.2c1.63,0.74,3.34,1.31,5.12,1.69c0.01-0.22,0.02-0.43,0.01-0.65
	C21.69,64.03,21.68,63.84,21.67,63.65z"/>
<linearGradient id="SVGID_00000160155291703804474810000009896512118408514963_" gradientUnits="userSpaceOnUse" x1="12.5826" y1="63.4761" x2="41.3586" y2="63.4761">
	<stop  offset="0" style="stop-color:#FF4B4A"/>
	<stop  offset="0.3603" style="stop-color:#F6CA3C"/>
	<stop  offset="0.7179" style="stop-color:#F17EFF"/>
	<stop  offset="1" style="stop-color:#AEA8FF"/>
</linearGradient>
<path style="fill:url(#SVGID_00000160155291703804474810000009896512118408514963_);" d="M32.17,63.69
	c-0.01,0.2-0.01,0.41-0.02,0.61c0,0.2,0,0.41,0.01,0.61c1.78-0.37,3.5-0.93,5.13-1.65c-0.11-0.4-0.17-0.79-0.2-1.21
	C35.52,62.76,33.88,63.31,32.17,63.69z"/>
<linearGradient id="SVGID_00000117645328902104230520000003711521564149511100_" gradientUnits="userSpaceOnUse" x1="12.5826" y1="64.8031" x2="41.3586" y2="64.8031">
	<stop  offset="0" style="stop-color:#FF4B4A"/>
	<stop  offset="0.3603" style="stop-color:#F6CA3C"/>
	<stop  offset="0.7179" style="stop-color:#F17EFF"/>
	<stop  offset="1" style="stop-color:#AEA8FF"/>
</linearGradient>
<path style="fill:url(#SVGID_00000117645328902104230520000003711521564149511100_);" d="M27,64.25c-0.6,0-1.19-0.03-1.78-0.07
	c-0.02,0.4-0.06,0.79-0.12,1.18c0.63,0.05,1.26,0.08,1.91,0.08c0.61,0,1.22-0.03,1.82-0.07c-0.05-0.39-0.09-0.79-0.11-1.18
	C28.14,64.22,27.58,64.25,27,64.25z"/>
<linearGradient id="SVGID_00000065780709397838172050000001926480660997054096_" gradientUnits="userSpaceOnUse" x1="1.5464" y1="39.9783" x2="52.457" y2="39.9783">
	<stop  offset="0" style="stop-color:#FF4B4A"/>
	<stop  offset="0.3603" style="stop-color:#F6CA3C"/>
	<stop  offset="0.7179" style="stop-color:#F17EFF"/>
	<stop  offset="1" style="stop-color:#AEA8FF"/>
</linearGradient>
<path style="fill:url(#SVGID_00000065780709397838172050000001926480660997054096_);" d="M27,14.52
	c-14.04,0-25.46,11.42-25.46,25.46c0,10.31,6.17,19.2,15,23.2c1.63,0.74,3.34,1.31,5.12,1.69c1.12,0.24,2.26,0.4,3.42,0.49
	c0.63,0.05,1.26,0.08,1.91,0.08c0.61,0,1.22-0.03,1.82-0.07c1.14-0.08,2.25-0.23,3.34-0.45c1.78-0.37,3.5-0.93,5.13-1.65
	c8.93-3.96,15.17-12.9,15.17-23.28C52.46,25.94,41.04,14.52,27,14.52z M37.08,62.04c-1.56,0.71-3.2,1.27-4.91,1.64
	c-1.13,0.25-2.28,0.41-3.46,0.49c-0.56,0.04-1.13,0.07-1.71,0.07c-0.6,0-1.19-0.03-1.78-0.07c-1.21-0.09-2.39-0.26-3.54-0.52
	c-1.71-0.38-3.35-0.95-4.9-1.67c-8.28-3.87-14.04-12.27-14.04-22C2.73,26.6,13.62,15.71,27,15.71S51.27,26.6,51.27,39.98
	C51.27,49.76,45.44,58.21,37.08,62.04z"/>
<linearGradient id="SVGID_00000175324817012449978460000016069328341259741068_" gradientUnits="userSpaceOnUse" x1="-126.8128" y1="-191.6255" x2="-89.9242" y2="-161.5781" gradientTransform="matrix(0.8728 -0.4881 0.4881 0.8728 208.1518 138.4163)">
	<stop  offset="0" style="stop-color:#BE1E2D"/>
	<stop  offset="0.3603" style="stop-color:#F2B022"/>
	<stop  offset="0.567" style="stop-color:#F193A2"/>
	<stop  offset="0.7179" style="stop-color:#F17EFF"/>
	<stop  offset="1" style="stop-color:#AEA8FF"/>
</linearGradient>
<path style="fill:url(#SVGID_00000175324817012449978460000016069328341259741068_);" d="M18.13,48.59
	c3.6-0.83,6.98-2.58,10.31-4.44c1.42-0.79,2.83-1.6,4.26-2.37c0.26,0.38,0.53,0.76,0.8,1.13c2.28,3.07,7.36,4.57,10.14,1.46
	c1.59-1.78,3.13-5.32,2.14-7.91c-0.76-1.99-2.68-1.41-4.13-1.02c-1.83,0.49-3.61,1.23-5.35,2.08c-0.63,0.31-1.26,0.63-1.89,0.97
	c-0.24-0.35-0.47-0.72-0.71-1.1c-3.61-5.8-7.01-12.52-12.75-15.5c-2.09-0.99-4.49-1.37-6.49,0.27c-1.54,1.27-2.97,3.65-3.23,5.91
	c-0.5,4.27,3.03,5.65,5.96,7.18c-2.61,0.91-5.16,2.07-7.61,3.5c-1.56,0.92-2.95,2.59-3.42,4.68c-0.41,1.8,0.58,3.24,1.8,4.07
	C10.87,49.51,14.9,49.33,18.13,48.59z M38.93,38.98c1.48-0.49,4.27-1.74,5.05,0.54c0.28,0.82,0.15,1.62,0.09,2.47
	c0,0.02,0,0.04,0,0.05c-0.03,0.03-0.06,0.06-0.08,0.08c-1.71,1.1-3.74,0.84-5.49,0.1c-1.11-0.47-1.98-1.14-2.74-1.98
	C36.8,39.77,37.86,39.34,38.93,38.98z M7.91,41.76c0.09,0.03,0.09,0.1,0.04,0.17C7.94,41.84,7.93,41.77,7.91,41.76z M8.02,42.27
	C8,42.25,7.99,42.14,7.97,42.03c0.28-0.16,0.56-0.35,0.84-0.51c3.59-2,7.37-3.44,11.22-4.38c0.51-0.13,2.14-2.6,1.62-3.16
	c-2.19-2.38-5.47-2.48-7.52-5.08c-0.51-0.64-0.9-1.4-1.03-2.29c-0.15-1,0.03-1.46,0.79-1.9c1.7-0.98,3.67-0.47,5.31,0.31
	c3.26,1.69,5.81,4.66,8.03,7.93c1.53,2.26,2.88,4.73,4.33,7.08c-5.28,2.96-10.6,6.06-16.47,5.84c-1.8-0.07-3.83-0.44-5.4-1.53
	C8.87,43.78,8.57,43.12,8.02,42.27z"/>
<g>
	<path class="st45" d="M60.93,32.57h-1.32l-1.18-1.98c-0.23-0.39-0.44-0.65-0.63-0.79s-0.4-0.21-0.65-0.21h-0.61v2.98h-1.12v-7.25
		h2.31c0.75,0,1.33,0.17,1.74,0.51c0.41,0.34,0.62,0.82,0.62,1.44c0,0.49-0.14,0.9-0.43,1.25c-0.28,0.35-0.68,0.59-1.19,0.73v0.02
		c0.32,0.11,0.69,0.49,1.09,1.14L60.93,32.57z M56.55,26.24v2.42h1c0.42,0,0.75-0.12,1-0.36s0.37-0.55,0.37-0.92
		c0-0.76-0.45-1.14-1.35-1.14H56.55z"/>
	<path class="st45" d="M66.13,32.57h-1.1v-0.81h-0.02c-0.36,0.62-0.89,0.93-1.59,0.93c-1.22,0-1.83-0.73-1.83-2.2v-3.1h1.1v2.97
		c0,0.97,0.37,1.45,1.11,1.45c0.36,0,0.66-0.13,0.89-0.4c0.23-0.27,0.35-0.61,0.35-1.04v-2.98h1.1V32.57z"/>
	<path class="st45" d="M72.34,32.57h-1.1v-0.82h-0.02c-0.37,0.63-0.95,0.94-1.71,0.94c-0.66,0-1.18-0.23-1.57-0.7
		c-0.39-0.47-0.58-1.1-0.58-1.89c0-0.86,0.22-1.54,0.66-2.06c0.44-0.51,1.01-0.77,1.71-0.77c0.7,0,1.2,0.27,1.5,0.8h0.02V24.9h1.1
		V32.57z M71.25,29.54c0-0.39-0.13-0.72-0.38-0.99c-0.25-0.27-0.57-0.4-0.94-0.4c-0.44,0-0.8,0.17-1.06,0.51
		c-0.26,0.34-0.39,0.81-0.39,1.4c0,0.54,0.12,0.97,0.37,1.29c0.25,0.31,0.58,0.47,1.01,0.47c0.41,0,0.75-0.16,1.01-0.47
		c0.26-0.31,0.39-0.7,0.39-1.18V29.54z"/>
	<path class="st45" d="M73.56,30.03c0-0.85,0.24-1.52,0.73-2.02c0.49-0.49,1.15-0.74,1.98-0.74c0.79,0,1.41,0.24,1.87,0.72
		c0.46,0.48,0.69,1.13,0.69,1.96c0,0.83-0.24,1.5-0.73,2c-0.48,0.5-1.13,0.75-1.94,0.75c-0.79,0-1.43-0.24-1.9-0.73
		C73.8,31.48,73.56,30.84,73.56,30.03z M74.68,30c0,0.57,0.14,1.01,0.41,1.33s0.65,0.48,1.13,0.48c1,0,1.49-0.61,1.49-1.84
		c0-0.59-0.13-1.04-0.38-1.36c-0.26-0.31-0.63-0.47-1.11-0.47s-0.86,0.17-1.13,0.5C74.82,28.98,74.68,29.43,74.68,30z"/>
	<path class="st45" d="M80.05,32.57V24.9h1.1v7.67H80.05z"/>
	<path class="st45" d="M85.55,25.8c-0.18-0.09-0.37-0.13-0.57-0.13c-0.56,0-0.83,0.33-0.83,1.01v0.71h1.2v0.87h-1.2v4.31h-1.1v-4.31
		h-0.88v-0.87h0.88v-0.77c0-0.56,0.17-1.01,0.51-1.34c0.34-0.33,0.78-0.49,1.31-0.49c0.27,0,0.5,0.03,0.68,0.09V25.8z"/>
	<path class="st45" d="M88.39,31.07c0.56,0.45,1.21,0.68,1.96,0.68c0.96,0,1.44-0.33,1.44-0.99c0-0.19-0.05-0.36-0.16-0.51
		c-0.11-0.15-0.25-0.29-0.43-0.4c-0.18-0.11-0.53-0.3-1.07-0.55c-0.65-0.31-1.11-0.63-1.37-0.95c-0.26-0.32-0.39-0.7-0.39-1.13
		c0-0.62,0.25-1.12,0.74-1.48c0.49-0.36,1.12-0.54,1.89-0.54c0.73,0,1.28,0.09,1.65,0.27v1.15c-0.45-0.31-1-0.46-1.67-0.46
		c-0.43,0-0.77,0.09-1.03,0.26c-0.26,0.17-0.39,0.41-0.39,0.71c0,0.27,0.1,0.49,0.29,0.67s0.6,0.41,1.22,0.7
		c0.72,0.34,1.22,0.67,1.49,1.01s0.41,0.73,0.41,1.17c0,0.66-0.24,1.16-0.71,1.5c-0.47,0.35-1.13,0.52-1.97,0.52
		c-0.31,0-0.65-0.04-1.03-0.11c-0.38-0.08-0.67-0.17-0.87-0.3V31.07z"/>
	<path class="st45" d="M96.53,32.51c-0.2,0.12-0.49,0.17-0.88,0.17c-0.98,0-1.48-0.53-1.48-1.6v-2.82H93.3v-0.87h0.88v-1.21
		l1.1-0.33v1.55h1.25v0.87h-1.25v2.63c0,0.32,0.06,0.55,0.17,0.7s0.3,0.21,0.55,0.21c0.2,0,0.37-0.06,0.53-0.17V32.51z"/>
	<path class="st45" d="M101.82,30.28h-3.56c0.05,1.05,0.58,1.57,1.6,1.57c0.57,0,1.1-0.17,1.57-0.52v0.91
		c-0.46,0.3-1.07,0.45-1.82,0.45c-0.77,0-1.37-0.23-1.8-0.7c-0.43-0.47-0.65-1.12-0.65-1.97c0-0.8,0.23-1.46,0.7-1.98
		s1.05-0.78,1.75-0.78c0.7,0,1.24,0.22,1.63,0.66c0.39,0.44,0.58,1.05,0.58,1.82V30.28z M100.75,29.47c0-0.44-0.1-0.78-0.3-1.02
		c-0.2-0.24-0.48-0.36-0.85-0.36c-0.33,0-0.62,0.12-0.87,0.38c-0.25,0.25-0.4,0.58-0.46,1H100.75z"/>
	<path class="st45" d="M102.85,25.61c0-0.18,0.06-0.34,0.19-0.46s0.29-0.18,0.48-0.18c0.19,0,0.35,0.06,0.48,0.18
		c0.13,0.12,0.2,0.27,0.2,0.46c0,0.18-0.07,0.34-0.2,0.46c-0.13,0.12-0.29,0.18-0.48,0.18s-0.35-0.06-0.48-0.18
		C102.91,25.94,102.85,25.79,102.85,25.61z M102.95,32.57v-5.18h1.1v5.18H102.95z"/>
	<path class="st45" d="M110.15,32.57h-1.1v-2.93c0-1-0.36-1.49-1.09-1.49c-0.37,0-0.67,0.14-0.91,0.42s-0.36,0.63-0.36,1.05v2.96
		h-1.1v-5.18h1.1v0.85h0.02c0.38-0.65,0.95-0.97,1.69-0.97c1.16,0,1.74,0.71,1.74,2.13V32.57z"/>
	<path class="st45" d="M115.94,30.28h-3.56c0.05,1.05,0.58,1.57,1.6,1.57c0.57,0,1.1-0.17,1.57-0.52v0.91
		c-0.46,0.3-1.07,0.45-1.82,0.45c-0.77,0-1.37-0.23-1.8-0.7c-0.43-0.47-0.65-1.12-0.65-1.97c0-0.8,0.23-1.46,0.7-1.98
		s1.05-0.78,1.75-0.78c0.7,0,1.24,0.22,1.63,0.66c0.39,0.44,0.58,1.05,0.58,1.82V30.28z M114.88,29.47c0-0.44-0.1-0.78-0.3-1.02
		c-0.2-0.24-0.48-0.36-0.85-0.36c-0.33,0-0.62,0.12-0.87,0.38c-0.25,0.25-0.4,0.58-0.46,1H114.88z"/>
	<path class="st45" d="M120.03,28.44c-0.16-0.11-0.38-0.16-0.65-0.16c-0.36,0-0.64,0.16-0.86,0.47c-0.22,0.31-0.33,0.73-0.33,1.24
		v2.58h-1.1v-5.18h1.1v1.03h0.02c0.26-0.75,0.71-1.12,1.36-1.12c0.19,0,0.35,0.02,0.46,0.07V28.44z"/>
	<path class="st45" d="M59.44,44.08h-4.02v-7.25h3.85v0.96h-2.73v2.14h2.53v0.96h-2.53v2.23h2.89V44.08z"/>
	<path class="st45" d="M65.28,44.08h-1.1v-0.82h-0.02c-0.37,0.63-0.95,0.94-1.71,0.94c-0.66,0-1.18-0.23-1.57-0.7
		s-0.58-1.1-0.58-1.89c0-0.86,0.22-1.54,0.66-2.06c0.44-0.51,1.01-0.77,1.71-0.77c0.7,0,1.2,0.27,1.5,0.8h0.02v-3.16h1.1V44.08z
		 M64.2,41.05c0-0.39-0.13-0.72-0.38-0.99c-0.25-0.27-0.57-0.4-0.94-0.4c-0.44,0-0.8,0.17-1.06,0.51c-0.26,0.34-0.39,0.81-0.39,1.4
		c0,0.54,0.12,0.97,0.37,1.29c0.25,0.31,0.58,0.47,1.01,0.47c0.41,0,0.75-0.16,1.01-0.47c0.26-0.31,0.39-0.7,0.39-1.18V41.05z"/>
	<path class="st45" d="M71.28,44.08h-1.1v-0.81h-0.02c-0.36,0.62-0.89,0.93-1.59,0.93c-1.22,0-1.83-0.73-1.83-2.2v-3.1h1.1v2.97
		c0,0.97,0.37,1.45,1.11,1.45c0.36,0,0.66-0.13,0.89-0.4c0.23-0.27,0.35-0.61,0.35-1.04V38.9h1.1V44.08z"/>
	<path class="st45" d="M76.51,43.86c-0.38,0.23-0.87,0.34-1.47,0.34c-0.76,0-1.37-0.24-1.84-0.72s-0.7-1.1-0.7-1.87
		c0-0.87,0.25-1.55,0.75-2.07c0.5-0.51,1.17-0.77,2.01-0.77c0.52,0,0.93,0.08,1.25,0.25v1.03c-0.37-0.27-0.77-0.4-1.19-0.4
		c-0.51,0-0.92,0.17-1.23,0.51s-0.47,0.79-0.47,1.36c0,0.56,0.15,1,0.45,1.31c0.3,0.32,0.7,0.48,1.2,0.48
		c0.44,0,0.85-0.14,1.24-0.42V43.86z"/>
	<path class="st45" d="M77.82,39.25c0.53-0.31,1.14-0.47,1.83-0.47c1.31,0,1.96,0.68,1.96,2.03v3.27h-1.07v-0.79h-0.02
		c-0.35,0.61-0.88,0.91-1.57,0.91c-0.51,0-0.91-0.14-1.2-0.41c-0.29-0.28-0.44-0.64-0.44-1.11c0-0.97,0.58-1.54,1.74-1.7l1.5-0.21
		c0-0.77-0.34-1.16-1.02-1.16c-0.62,0-1.19,0.2-1.71,0.6V39.25z M79.4,41.67c-0.37,0.05-0.64,0.15-0.79,0.29
		c-0.15,0.14-0.23,0.35-0.23,0.62c0,0.23,0.08,0.41,0.25,0.56c0.17,0.14,0.38,0.22,0.64,0.22c0.37,0,0.67-0.13,0.92-0.39
		s0.37-0.59,0.37-0.99v-0.46L79.4,41.67z"/>
	<path class="st45" d="M85.73,44.02c-0.2,0.12-0.49,0.17-0.88,0.17c-0.98,0-1.48-0.53-1.48-1.6v-2.82H82.5V38.9h0.88v-1.21l1.1-0.33
		v1.55h1.25v0.87h-1.25v2.63c0,0.32,0.06,0.55,0.17,0.7s0.3,0.21,0.55,0.21c0.2,0,0.37-0.06,0.53-0.17V44.02z"/>
	<path class="st45" d="M86.64,37.12c0-0.18,0.06-0.34,0.19-0.46s0.29-0.18,0.48-0.18c0.19,0,0.35,0.06,0.48,0.18
		c0.13,0.12,0.2,0.27,0.2,0.46c0,0.18-0.07,0.34-0.2,0.46c-0.13,0.12-0.29,0.18-0.48,0.18s-0.35-0.06-0.48-0.18
		C86.71,37.45,86.64,37.3,86.64,37.12z M86.75,44.08V38.9h1.1v5.18H86.75z"/>
	<path class="st45" d="M89.07,41.54c0-0.85,0.24-1.52,0.73-2.02c0.49-0.49,1.15-0.74,1.98-0.74c0.79,0,1.41,0.24,1.87,0.72
		c0.46,0.48,0.69,1.13,0.69,1.96c0,0.83-0.24,1.5-0.73,2c-0.48,0.5-1.13,0.75-1.94,0.75c-0.79,0-1.43-0.24-1.9-0.73
		C89.31,42.99,89.07,42.34,89.07,41.54z M90.19,41.51c0,0.57,0.14,1.01,0.41,1.33s0.65,0.48,1.13,0.48c1,0,1.49-0.61,1.49-1.84
		c0-0.59-0.13-1.04-0.38-1.36c-0.26-0.31-0.63-0.47-1.11-0.47s-0.86,0.17-1.13,0.5C90.32,40.49,90.19,40.94,90.19,41.51z"/>
	<path class="st45" d="M100.11,44.08h-1.1v-2.93c0-1-0.36-1.49-1.09-1.49c-0.37,0-0.67,0.14-0.91,0.42s-0.36,0.63-0.36,1.05v2.96
		h-1.1V38.9h1.1v0.85h0.02c0.38-0.65,0.95-0.97,1.69-0.97c1.16,0,1.74,0.71,1.74,2.13V44.08z"/>
	<path class="st45" d="M107.96,37.79h-2.73v2.25h2.52V41h-2.52v3.08h-1.12v-7.25h3.86V37.79z"/>
	<path class="st45" d="M108.81,41.54c0-0.85,0.24-1.52,0.73-2.02c0.49-0.49,1.15-0.74,1.98-0.74c0.79,0,1.41,0.24,1.87,0.72
		c0.46,0.48,0.69,1.13,0.69,1.96c0,0.83-0.24,1.5-0.73,2c-0.48,0.5-1.13,0.75-1.94,0.75c-0.79,0-1.43-0.24-1.9-0.73
		C109.04,42.99,108.81,42.34,108.81,41.54z M109.93,41.51c0,0.57,0.14,1.01,0.41,1.33s0.65,0.48,1.13,0.48c1,0,1.49-0.61,1.49-1.84
		c0-0.59-0.13-1.04-0.38-1.36c-0.26-0.31-0.63-0.47-1.11-0.47s-0.86,0.17-1.13,0.5C110.06,40.49,109.93,40.94,109.93,41.51z"/>
	<path class="st45" d="M119.75,44.08h-1.1v-0.81h-0.02c-0.36,0.62-0.89,0.93-1.59,0.93c-1.22,0-1.83-0.73-1.83-2.2v-3.1h1.1v2.97
		c0,0.97,0.37,1.45,1.11,1.45c0.36,0,0.66-0.13,0.89-0.4c0.23-0.27,0.35-0.61,0.35-1.04V38.9h1.1V44.08z"/>
	<path class="st45" d="M125.85,44.08h-1.1v-2.93c0-1-0.36-1.49-1.09-1.49c-0.37,0-0.67,0.14-0.91,0.42s-0.36,0.63-0.36,1.05v2.96
		h-1.1V38.9h1.1v0.85h0.02c0.38-0.65,0.95-0.97,1.69-0.97c1.16,0,1.74,0.71,1.74,2.13V44.08z"/>
	<path class="st45" d="M131.96,44.08h-1.1v-0.82h-0.02c-0.37,0.63-0.95,0.94-1.71,0.94c-0.66,0-1.18-0.23-1.57-0.7
		s-0.58-1.1-0.58-1.89c0-0.86,0.22-1.54,0.66-2.06c0.44-0.51,1.01-0.77,1.71-0.77c0.7,0,1.2,0.27,1.5,0.8h0.02v-3.16h1.1V44.08z
		 M130.87,41.05c0-0.39-0.13-0.72-0.38-0.99c-0.25-0.27-0.57-0.4-0.94-0.4c-0.44,0-0.8,0.17-1.06,0.51
		c-0.26,0.34-0.39,0.81-0.39,1.4c0,0.54,0.12,0.97,0.37,1.29c0.25,0.31,0.58,0.47,1.01,0.47c0.41,0,0.75-0.16,1.01-0.47
		c0.26-0.31,0.39-0.7,0.39-1.18V41.05z"/>
	<path class="st45" d="M133.64,39.25c0.53-0.31,1.14-0.47,1.83-0.47c1.31,0,1.96,0.68,1.96,2.03v3.27h-1.07v-0.79h-0.02
		c-0.35,0.61-0.88,0.91-1.57,0.91c-0.51,0-0.91-0.14-1.2-0.41c-0.29-0.28-0.44-0.64-0.44-1.11c0-0.97,0.58-1.54,1.74-1.7l1.5-0.21
		c0-0.77-0.34-1.16-1.02-1.16c-0.62,0-1.19,0.2-1.71,0.6V39.25z M135.23,41.67c-0.37,0.05-0.64,0.15-0.79,0.29
		c-0.15,0.14-0.23,0.35-0.23,0.62c0,0.23,0.08,0.41,0.25,0.56c0.17,0.14,0.38,0.22,0.64,0.22c0.37,0,0.67-0.13,0.92-0.39
		s0.37-0.59,0.37-0.99v-0.46L135.23,41.67z"/>
	<path class="st45" d="M141.55,44.02c-0.2,0.12-0.49,0.17-0.88,0.17c-0.98,0-1.48-0.53-1.48-1.6v-2.82h-0.88V38.9h0.88v-1.21
		l1.1-0.33v1.55h1.25v0.87h-1.25v2.63c0,0.32,0.06,0.55,0.17,0.7s0.3,0.21,0.55,0.21c0.2,0,0.37-0.06,0.53-0.17V44.02z"/>
	<path class="st45" d="M142.47,37.12c0-0.18,0.06-0.34,0.19-0.46s0.29-0.18,0.48-0.18c0.19,0,0.35,0.06,0.48,0.18
		c0.13,0.12,0.2,0.27,0.2,0.46c0,0.18-0.07,0.34-0.2,0.46c-0.13,0.12-0.29,0.18-0.48,0.18s-0.35-0.06-0.48-0.18
		C142.53,37.45,142.47,37.3,142.47,37.12z M142.58,44.08V38.9h1.1v5.18H142.58z"/>
	<path class="st45" d="M144.89,41.54c0-0.85,0.24-1.52,0.73-2.02c0.49-0.49,1.15-0.74,1.98-0.74c0.79,0,1.41,0.24,1.87,0.72
		c0.46,0.48,0.69,1.13,0.69,1.96c0,0.83-0.24,1.5-0.73,2c-0.48,0.5-1.13,0.75-1.94,0.75c-0.79,0-1.43-0.24-1.9-0.73
		C145.13,42.99,144.89,42.34,144.89,41.54z M146.01,41.51c0,0.57,0.14,1.01,0.41,1.33s0.65,0.48,1.13,0.48c1,0,1.49-0.61,1.49-1.84
		c0-0.59-0.13-1.04-0.38-1.36c-0.26-0.31-0.63-0.47-1.11-0.47s-0.86,0.17-1.13,0.5C146.15,40.49,146.01,40.94,146.01,41.51z"/>
	<path class="st45" d="M155.94,44.08h-1.1v-2.93c0-1-0.36-1.49-1.09-1.49c-0.37,0-0.67,0.14-0.91,0.42s-0.36,0.63-0.36,1.05v2.96
		h-1.1V38.9h1.1v0.85h0.02c0.38-0.65,0.95-0.97,1.69-0.97c1.16,0,1.74,0.71,1.74,2.13V44.08z"/>
</g>
<g>
	<path class="st45" d="M59.37,53.61H58.2v0.67h-0.5v-0.67h-2.28v-0.47h2.28v-0.86h0.5v0.86h1.17V53.61z M63.8,58.18h-3.96v0.81h3.3
		v0.49h-3.3v1.2h-0.5v-1.2h-3.26v-0.49h3.26v-0.81h-3.91v-0.47h3.91V55h-3.4v-0.46h7.28V55h-3.39v2.7h3.96V58.18z M58.74,56.54
		h-1.23v0.75h-0.49v-0.75h-1.37v-0.48h1.37v-0.62h0.49v0.62h1.23V56.54z M63.78,53.61h-2.27v0.67H61v-0.67h-1.18v-0.47H61v-0.86
		h0.51v0.86h2.27V53.61z M63.51,56.54h-1.34v0.73h-0.5v-0.73h-1.26v-0.48h1.26v-0.62h0.5v0.62h1.34V56.54z"/>
	<path class="st45" d="M67.35,54.64c-0.16,0.33-0.43,0.77-0.8,1.33v4.66h-0.5v-3.99c-0.26,0.3-0.54,0.57-0.84,0.82l-0.29-0.41
		c0.73-0.59,1.4-1.46,1.99-2.62L67.35,54.64z M67.38,52.42c-0.54,1.04-1.25,1.87-2.12,2.48l-0.25-0.41
		c0.79-0.59,1.42-1.34,1.89-2.26L67.38,52.42z M68.34,58.26c-0.18,0.79-0.49,1.48-0.91,2.09l-0.4-0.26
		c0.39-0.57,0.68-1.23,0.88-1.99L68.34,58.26z M73.28,57.53h-5.98l0.01-0.41h5.98V57.53z M73.2,53.54h-2.66v0.8h2.25v2.08h-5.02
		v-2.08h2.27v-0.8H67.5v-0.45h2.54v-0.83h0.5v0.83h2.66V53.54z M69.26,55.98v-1.2h-1v1.2H69.26z M71.93,59.32
		c-0.03,0.34-0.09,0.6-0.19,0.77c-0.1,0.18-0.21,0.3-0.35,0.36c-0.14,0.06-0.44,0.09-0.9,0.09c-0.34,0-0.63-0.01-0.86-0.03
		c-0.23-0.02-0.41-0.09-0.52-0.22c-0.11-0.13-0.17-0.32-0.17-0.57v-1.56h0.47v1.58c0,0.12,0.04,0.21,0.13,0.27s0.42,0.08,0.99,0.08
		c0.34,0,0.55-0.02,0.64-0.07s0.16-0.16,0.21-0.33c0.05-0.17,0.08-0.35,0.08-0.53L71.93,59.32z M70.8,55.98v-1.2h-1.04v1.2H70.8z
		 M71.1,58.71l-0.38,0.3c-0.22-0.36-0.48-0.67-0.8-0.94l0.37-0.34C70.62,58.01,70.89,58.33,71.1,58.71z M72.31,55.98v-1.2H71.3v1.2
		H72.31z M73.35,60.02l-0.4,0.21c-0.3-0.76-0.65-1.39-1.05-1.9l0.43-0.29C72.8,58.73,73.14,59.38,73.35,60.02z"/>
	<path class="st45" d="M77.46,57.12l-0.3,0.4c-0.17-0.21-0.47-0.47-0.89-0.8v3.89h-0.48v-3.59c-0.3,0.39-0.61,0.77-0.95,1.12
		l-0.3-0.41c0.92-0.96,1.62-2.04,2.09-3.26h-1.94v-0.45h2.48v0.45c-0.22,0.59-0.5,1.16-0.85,1.72
		C76.67,56.41,77.05,56.72,77.46,57.12z M76.43,53.46l-0.44,0.25c-0.2-0.45-0.46-0.86-0.77-1.22l0.37-0.24
		C75.94,52.61,76.22,53.02,76.43,53.46z M82.93,52.97h-5.58V52.5h5.58V52.97z M82.59,60.63h-0.48v-0.49h-3.94v0.49h-0.49v-4.19h4.91
		V60.63z M82.21,55.74h-4.17v-1.99h4.17V55.74z M79.9,58.04v-1.12h-1.73v1.12H79.9z M79.9,59.67v-1.16h-1.73v1.16H79.9z
		 M81.72,55.25v-1.03h-3.18v1.03H81.72z M82.12,58.04v-1.12h-1.73v1.12H82.12z M82.12,59.67v-1.16h-1.73v1.16H82.12z"/>
	<path class="st45" d="M89.01,52.86c-0.4,0.68-0.85,1.3-1.34,1.86h1.04v0.47h-1.49c-0.35,0.36-0.67,0.67-0.96,0.92h1.85v0.43
		c-0.4,0.4-0.81,0.78-1.25,1.13v0.47c0.57-0.09,1.15-0.21,1.72-0.36l-0.02,0.5c-0.53,0.12-1.1,0.24-1.7,0.34v1.32
		c0,0.21-0.06,0.37-0.18,0.5c-0.12,0.12-0.39,0.19-0.83,0.19c-0.16,0-0.33-0.01-0.5-0.02l-0.15-0.51c0.17,0.02,0.37,0.02,0.61,0.02
		c0.27,0,0.44-0.02,0.49-0.06c0.06-0.04,0.09-0.11,0.09-0.21v-1.12c-0.84,0.13-1.52,0.23-2.05,0.3l-0.12-0.46
		c0.82-0.11,1.54-0.22,2.17-0.34v-0.75c0.34-0.28,0.67-0.58,0.99-0.9h-1.75c-0.41,0.31-0.8,0.57-1.16,0.79l-0.33-0.41
		c1.05-0.61,1.85-1.19,2.43-1.76h-2.24v-0.47h1.76v-1.1h-1.47v-0.45h1.47v-0.93h0.49v0.93h1.12v0.45h-1.12v1.1h0.47
		c0.57-0.6,1.08-1.29,1.53-2.09L89.01,52.86z M92.61,60.23l-0.3,0.45c-0.78-0.51-1.39-1.05-1.82-1.61c-0.7,0.7-1.41,1.23-2.11,1.6
		l-0.32-0.44c0.91-0.48,1.63-1.02,2.15-1.62c-0.32-0.58-0.6-1.39-0.81-2.45l0.48-0.17c0.17,0.98,0.4,1.72,0.66,2.21
		c0.67-1.07,0.98-2.38,0.92-3.92H90c-0.38,0.92-0.79,1.67-1.22,2.25l-0.38-0.36c0.83-1.08,1.37-2.4,1.62-3.95l0.49,0.13
		c-0.11,0.54-0.22,1.02-0.36,1.44h2.4v0.49h-0.59c-0.01,1.88-0.39,3.34-1.14,4.39C91.23,59.24,91.83,59.76,92.61,60.23z"/>
	<path class="st45" d="M102.08,53.38H97.2c-0.5,0.54-1.04,1.01-1.63,1.41c1.85-0.1,3.29-0.22,4.35-0.38
		c-0.34-0.2-0.62-0.35-0.83-0.45l0.4-0.35c0.75,0.36,1.49,0.85,2.23,1.47l-0.37,0.36c-0.36-0.29-0.62-0.5-0.81-0.62
		c-1.87,0.23-3.91,0.4-6.1,0.52l-0.15-0.54c0.72-0.16,1.45-0.63,2.19-1.43h-2.65v-0.5h3.12c0.18-0.2,0.37-0.44,0.55-0.7l0.55,0.16
		c-0.08,0.11-0.22,0.29-0.42,0.54h4.45V53.38z M101.04,59.88c0,0.49-0.36,0.74-1.09,0.74c-0.3,0-0.62-0.01-0.96-0.04l-0.16-0.48
		c0.15,0.01,0.61,0.01,1.38,0.01c0.21,0,0.32-0.12,0.32-0.35v-1.53c-1.75,0.45-3.44,0.81-5.06,1.1l-0.19-0.38
		c-0.15,0.63-0.49,1.2-1.01,1.72l-0.39-0.35c0.43-0.41,0.71-0.83,0.83-1.26c0.12-0.43,0.19-1.07,0.19-1.9v-1.42h6.15V59.88z
		 M100.53,57.77v-1.54H95.4v0.69c1.58,0.08,2.85,0.2,3.83,0.37l-0.19,0.47c-1.06-0.18-2.27-0.3-3.64-0.36
		c0,0.28-0.03,0.75-0.09,1.43C96.61,58.68,98.35,58.32,100.53,57.77z"/>
	<path class="st45" d="M111.75,58.65l-0.28,0.46c-1.22-0.48-2.1-1.16-2.65-2.04h-2.62c-0.58,0.81-1.45,1.46-2.62,1.96l-0.32-0.44
		c1.02-0.38,1.79-0.88,2.3-1.52h-2.17v-0.45h1.76v-3.18h-1.53v-0.48h1.53v-0.68h0.48v0.68h3.86v-0.68h0.49v0.68h1.54v0.48h-1.54
		v3.18h1.75v0.45h-2.34C109.99,57.8,110.78,58.33,111.75,58.65z M111.27,60.44h-7.46v-0.48h3.5v-1.02h-1.97v-0.46h1.97v-0.92h0.48
		v0.92h1.95v0.46h-1.95v1.02h3.48V60.44z M109.5,54.17v-0.72h-3.86v0.72H109.5z M109.5,55.38v-0.76h-3.86v0.76H109.5z M105.63,55.88
		v0.75h3.86v-0.75H105.63z"/>
	<path class="st45" d="M121.33,55.28l-0.3,0.45c-0.62-0.29-1.14-0.56-1.55-0.82v0.46h-2.13v1.36h3.42v0.49h-3.42v2.69h3.62v0.49
		h-7.64v-0.49h3.52v-2.69h-3.34v-0.49h3.34v-1.36h-2.04v-0.5c-0.59,0.35-1.11,0.62-1.56,0.81l-0.33-0.45
		c1.79-0.71,3.17-1.71,4.14-3.02l0.53,0.18l-0.13,0.16C118.47,53.75,119.75,54.65,121.33,55.28z M115.79,59.3l-0.47,0.19
		c-0.17-0.43-0.49-0.96-0.95-1.59l0.45-0.21C115.23,58.23,115.55,58.77,115.79,59.3z M119.39,54.85c-0.78-0.46-1.53-1.1-2.24-1.91
		c-0.56,0.67-1.33,1.3-2.28,1.91H119.39z M120.02,57.94c-0.37,0.7-0.73,1.24-1.08,1.62l-0.45-0.28c0.34-0.35,0.71-0.88,1.09-1.58
		L120.02,57.94z"/>
	<path class="st45" d="M130.98,54.14l-0.21,0.46c-1.04-0.25-1.87-0.53-2.5-0.85v0.37h-3.1v-0.37c-0.68,0.35-1.48,0.66-2.42,0.93
		l-0.26-0.44c1.72-0.44,3.1-1.13,4.13-2.06l0.55,0.16c-0.07,0.07-0.12,0.12-0.15,0.15C128.03,53.26,129.35,53.8,130.98,54.14z
		 M130.03,57.05h-6.66V54.7h6.66V57.05z M129.61,60.64h-0.48v-0.4h-4.81v0.4h-0.51v-3.03h5.8V60.64z M126.45,56.59v-1.44h-2.59v1.44
		H126.45z M129.13,58.69v-0.62h-4.81v0.62H129.13z M129.13,59.78v-0.64h-4.81v0.64H129.13z M125.66,56.1l-0.36,0.27
		c-0.21-0.28-0.45-0.56-0.72-0.82l0.37-0.24C125.21,55.53,125.45,55.79,125.66,56.1z M128.04,53.66c-0.49-0.25-0.94-0.54-1.37-0.85
		c-0.42,0.32-0.85,0.61-1.29,0.85H128.04z M129.54,56.59v-1.44h-2.58v1.44H129.54z M128.81,55.52c-0.22,0.33-0.46,0.61-0.72,0.84
		l-0.37-0.27c0.26-0.2,0.49-0.45,0.69-0.74L128.81,55.52z"/>
</g>
<path class="st38" d="M54.7,48.31c34.91,0,69.81,0,104.72,0"/>
</svg>
